<svg width="31" height="40" viewBox="0 0 31 40" fill="none" xmlns="http://www.w3.org/2000/svg">
<g clip-path="url(#clip0_4402_129)">
<path d="M29.7812 26.7033L27.4722 11.1033H25.7708V5.00952C25.7708 3.30327 24.434 1.96265 22.7326 1.96265H4.50347C2.80208 1.96265 1.46527 3.30327 1.46527 5.00952V35.4783C1.46527 37.1845 2.80208 38.5251 4.50347 38.5251H22.7326C24.434 38.5251 25.7708 37.1845 25.7708 35.4783V28.7751H28.0194C28.5667 28.7751 28.9917 28.5927 29.3562 28.1658C29.7208 27.7389 29.8424 27.2521 29.7812 26.7033ZM22.7326 37.3064H4.50347C3.47013 37.3064 2.68055 36.5139 2.68055 35.4783V32.4314H24.5555V35.4783C24.5555 36.5146 23.7653 37.3064 22.7326 37.3064ZM24.5555 31.2126H2.68055V5.00952C2.68055 3.97324 3.47083 3.1814 4.50347 3.1814H22.7326C23.766 3.1814 24.5555 3.97393 24.5555 5.00952V11.1033H23.3403C23.3403 8.72706 21.4569 6.83765 19.0868 6.83765C16.7167 6.83765 14.8333 8.72636 14.8333 11.1033H10.6403L8.33124 26.7033C8.27013 27.2521 8.39235 27.8001 8.75624 28.1658C9.12013 28.5314 9.60694 28.7751 10.1535 28.7751H24.5549V31.2126H24.5555ZM22.1243 11.1033H16.0479C16.0479 9.39702 17.3847 8.0564 19.0861 8.0564C20.7875 8.0564 22.1243 9.39702 22.1243 11.1033ZM28.5653 27.3732C28.4437 27.4951 28.2611 27.5557 28.0792 27.5557H10.2153C10.0333 27.5557 9.85069 27.4944 9.72916 27.3732C9.60763 27.2521 9.60763 27.0682 9.60763 26.8857L11.734 12.322H14.8326V14.1501H16.0479V12.322H22.1243V14.1501H23.3396V12.322H26.4382L28.6868 26.8857C28.7479 27.0682 28.6868 27.2514 28.5653 27.3732Z" fill="black" stroke="black" stroke-width="0.5" stroke-miterlimit="10"/>
<path d="M14.8333 34.8689C14.8333 35.5416 14.2889 36.0876 13.618 36.0876C12.9472 36.0876 12.4028 35.5416 12.4028 34.8689C12.4028 34.1961 12.9472 33.6501 13.618 33.6501C14.2889 33.6501 14.8333 34.1961 14.8333 34.8689Z" fill="black" stroke="black" stroke-width="0.5" stroke-miterlimit="10"/>
</g>
<defs>
<clipPath id="clip0_4402_129">
<rect width="30" height="39" fill="white" transform="translate(0.25 0.743896)"/>
</clipPath>
</defs>
</svg>
