<svg width="25" height="25" viewBox="0 0 25 25" fill="none" xmlns="http://www.w3.org/2000/svg">
<path d="M9.10507 17.454C4.45828 17.454 0.675049 13.6708 0.675049 9.02402C0.675049 4.37722 4.45828 0.593994 9.10507 0.593994C13.7519 0.593994 17.5351 4.37722 17.5351 9.02402C17.5351 13.6708 13.7519 17.454 9.10507 17.454ZM9.10507 1.82766C5.13268 1.82766 1.90871 5.05985 1.90871 9.02402C1.90871 12.9882 5.13268 16.2204 9.10507 16.2204C13.0775 16.2204 16.3014 12.9882 16.3014 9.02402C16.3014 5.05985 13.0775 1.82766 9.10507 1.82766Z" fill="black"/>
<path fill-rule="evenodd" clip-rule="evenodd" d="M15.2154 15.1345C15.4692 14.8806 15.8808 14.8806 16.1346 15.1345L24.6346 23.6345C24.8885 23.8883 24.8885 24.2999 24.6346 24.5537C24.3808 24.8076 23.9692 24.8076 23.7154 24.5537L15.2154 16.0537C14.9616 15.7999 14.9616 15.3883 15.2154 15.1345Z" fill="black"/>
</svg>
